<svg xmlns="http://www.w3.org/2000/svg" viewBox="0 0 595 95" height="28">
    <path
        d="M123.52 33.802c6.68-10.02 20.72-9.058 25.419.623.396-.566.736-1.02 1.132-1.529 5.435-7.642 17.719-8.548 23.947-1.755 2.773 3.057 4.132 6.85 4.189 10.926.226 9.568.113 19.191.17 28.759 0 1.358-.567 1.925-1.925 1.925a212.371 212.371 0 0 0-8.492 0c-1.642.056-2.208-.623-2.208-2.265.057-7.303.057-14.662 0-21.965 0-1.812-.226-3.68-.679-5.435-.793-3.114-2.887-4.642-6.001-4.812-3.283-.17-5.944 1.19-6.963 4.076a18.399 18.399 0 0 0-1.019 6.058c-.113 7.246-.057 14.492-.057 21.795 0 2.264-.17 2.434-2.491 2.434h-7.586c-2.377 0-2.547-.17-2.547-2.604 0-7.076.057-14.153-.057-21.229 0-1.925-.17-3.906-.679-5.774-.793-3-2.831-4.586-5.831-4.756-3.227-.226-5.944 1.132-7.076 3.963-.567 1.415-.963 3.057-.963 4.586-.113 7.699-.056 15.398-.056 23.097 0 2.604-.17 2.774-2.774 2.774h-6.624c-3.283 0-3.283 0-3.283-3.227V45.634c0-5.152.056-10.36 0-15.512 0-1.755.622-2.547 2.434-2.434 2.661.113 5.321.056 7.925 0 1.359 0 1.982.566 2.039 1.868-.114 1.245 0 2.491.056 4.246ZM299.522 32.391V9.746c0-2.377.226-2.604 2.547-2.66 2.661 0 5.322.056 7.926 0 1.528-.057 2.264.453 2.264 2.15-.056 20.438-.056 40.874 0 61.311 0 1.472-.509 2.264-2.038 2.208a177.112 177.112 0 0 0-7.755 0c-1.359 0-1.982-.566-1.982-1.925v-3.736c-.396 0-.566-.057-.622 0-6.794 9.737-24.4 9.17-31.929-2.944-6.454-10.36-4.359-25.532 4.585-33.005 7.416-6.17 20.493-6.17 26.324 1.02.17.113.284.113.68.226Zm-11.209 29.834c6.737.057 11.379-4.812 11.492-11.832.057-7.133-4.586-12.114-11.322-12.171-6.794 0-11.662 4.868-11.719 11.832-.113 7.19 4.642 12.115 11.549 12.171ZM428.147 67.887v19.7c0 2.491-.114 2.605-2.548 2.605-2.661 0-5.321-.057-7.926 0-1.754.056-2.321-.68-2.321-2.378.057-4.982 0-9.964 0-14.946V30.636c0-2.83.17-2.944 3.001-3 2.264 0 4.529.056 6.793 0 1.472-.057 2.095.623 2.095 2.038v3.397c1.075-.85 2.208-1.699 3.283-2.605 6.284-5.208 16.927-5.095 23.947.227 11.605 8.888 11.888 29.268.623 38.609-7.416 6.114-20.154 6.34-26.438-1.189 0-.057-.17-.057-.509-.226Zm22.871-17.72c0-7.02-4.812-12.001-11.662-11.945-6.85.057-11.436 4.925-11.323 12.172.057 7.133 4.643 11.831 11.436 11.831s11.549-4.925 11.549-12.058ZM225.816 33.86c3.849-5.377 8.944-7.698 15.228-7.075 8.152.792 13.643 6.566 14.379 15.001.283 3.397.283 6.794.283 10.19.057 6.115 0 12.229.057 18.343 0 1.755-.566 2.547-2.434 2.49-2.718-.113-5.435-.056-8.152 0-1.642.057-2.208-.679-2.208-2.264.056-7.133 0-14.266 0-21.399 0-1.132.056-2.264-.113-3.397-.736-4.982-3.793-7.586-8.605-7.416-4.812.17-8.152 3.34-8.266 8.322-.169 7.416-.056 14.889-.113 22.305 0 3.793 0 3.793-3.68 3.793-2.321 0-4.642-.057-7.019 0-1.472.056-2.038-.623-2.038-2.038V29.84c0-1.528.622-2.15 2.151-2.15 2.717.056 5.435.056 8.152 0 1.472-.057 2.038.622 2.095 2.037.056 1.359.226 2.718.283 4.133ZM326.582 37.542c-1.924 0-3.509-.056-5.038 0-1.415.057-2.095-.509-2.038-1.98.057-1.982.057-3.907 0-5.888-.057-1.472.679-2.038 2.095-1.982 1.585.057 3.17 0 5.038 0v-8.718c0-3.17 0-3.17 3.114-3.17 2.377 0 4.812.056 7.189 0 1.812-.057 2.491.566 2.435 2.377-.114 3.057 0 6.171 0 9.511 2.151 0 4.132.057 6.114 0 1.698-.056 2.491.566 2.377 2.321a84.296 84.296 0 0 0 0 5.322c.057 1.755-.679 2.377-2.377 2.264-1.925-.113-3.906 0-5.944 0-.057.623-.17 1.076-.17 1.585 0 6.284-.057 12.625 0 18.908 0 3.567 1.302 4.756 4.868 4.7.34 0 .623-.057.963-.057 2.377-.114 2.66.17 2.717 2.434 0 1.528-.057 3.057 0 4.529.057 1.528-.566 2.434-1.981 2.83-4.756 1.246-9.511 1.302-13.927-1.189-3.68-2.094-5.208-5.604-5.265-9.68-.113-7.246-.056-14.493-.056-21.739-.114-.792-.114-1.472-.114-2.378ZM368.592 34.37c.962-1.642 1.529-2.831 2.264-3.907 2.208-3.17 6.114-4.529 9.851-3.566 1.698.453 2.717 1.358 2.661 3.34-.114 2.264-.057 4.529 0 6.793 0 1.416-.623 1.868-1.982 1.698-1.528-.226-3.17-.509-4.699-.282-4.812.566-7.869 4.076-7.925 9.227-.113 7.416-.057 14.889-.057 22.305 0 2.604-.17 2.774-2.83 2.774h-7.19c-2.491 0-2.717-.226-2.717-2.66V44.728c0-4.868.056-9.68 0-14.549 0-1.755.566-2.547 2.434-2.49 2.491.113 5.038.113 7.586 0 1.868-.114 2.491.735 2.491 2.434-.17 1.245 0 2.49.113 4.246ZM202.153 50.222v20.04c0 2.265-.169 2.434-2.49 2.434-2.718 0-5.435-.056-8.152 0-1.416.057-2.095-.566-2.095-1.98V29.671c0-1.472.623-2.038 2.095-2.038 2.773.056 5.547.113 8.321 0 1.869-.057 2.378.736 2.378 2.49-.057 6.738-.057 13.418-.057 20.098ZM404.369 50.221v20.04c0 2.322-.17 2.492-2.491 2.492-2.717 0-5.435-.057-8.152 0-1.415.056-2.095-.51-2.095-1.982V29.728c0-1.416.623-2.038 2.038-2.038 2.831.056 5.661.056 8.492 0 1.642-.057 2.208.68 2.208 2.264-.057 6.737 0 13.53 0 20.267ZM474.171 73.885c-4.246 0-7.473-3.34-7.416-7.642.056-4.246 3.397-7.586 7.586-7.53 4.132.057 7.529 3.51 7.529 7.7-.057 4.076-3.51 7.472-7.699 7.472ZM195.923 5.727c3.906 0 6.963 3.057 6.906 6.963 0 4.02-3.114 7.076-7.076 7.02-3.963-.057-6.963-3.17-6.907-7.19.057-3.85 3.114-6.85 7.077-6.793ZM398.026 5.726c3.907 0 6.964 3 7.02 6.906.057 4.02-3.057 7.133-6.963 7.133-3.963 0-7.02-3.113-7.02-7.076 0-3.963 3.001-6.963 6.963-6.963ZM66.814 22.017c5.65-1.05 8.92-4.359 9.848-9.929.585 5.368 4.681 9.243 9.767 9.888-5.59 1.03-8.88 4.319-9.808 9.95-.282-2.564-1.291-4.824-3.107-6.68-1.857-1.857-4.097-2.906-6.7-3.23ZM2.538 51.34c24.454-4.542 38.602-18.865 42.62-42.97 2.532 23.232 20.261 40 42.27 42.795C63.236 55.619 49 69.855 44.983 94.221c-1.223-11.091-5.59-20.873-13.45-28.908-8.035-8.035-17.729-12.576-28.995-13.973ZM0 14.937c7.534-1.4 11.893-5.812 13.13-13.238.78 7.157 6.243 12.323 13.023 13.184-7.453 1.372-11.839 5.758-13.076 13.265-.377-3.417-1.723-6.43-4.144-8.906C6.458 16.766 3.47 15.367 0 14.937Z"></path>
    <path class="beta transition-opacity" fill-rule="evenodd" clip-rule="evenodd"
        d="M508.875 34c-6.627 0-12 5.373-12 12v16c0 6.627 5.373 12 12 12h74c6.627 0 12-5.373 12-12V46c0-6.627-5.373-12-12-12h-74Zm5.469 11.492a.6.6 0 0 0-.6.6v15.816a.6.6 0 0 0 .6.6h5.976c3.192 0 5.256-1.992 5.256-4.752 0-2.112-1.344-3.624-3-4.032 1.416-.48 2.472-1.896 2.472-3.648 0-2.64-1.872-4.584-5.184-4.584h-5.52Zm3.264 7.032a.6.6 0 0 1-.6-.6v-3.048a.6.6 0 0 1 .6-.6h1.728c1.608 0 2.448.816 2.448 2.112 0 1.296-.912 2.136-2.424 2.136h-1.752Zm0 7.224a.6.6 0 0 1-.6-.6V55.86a.6.6 0 0 1 .6-.6h2.136c1.656 0 2.52.936 2.52 2.28 0 1.368-.96 2.208-2.568 2.208h-2.088Zm23.841 2.16a.6.6 0 0 1-.6.6h-9.456a.6.6 0 0 1-.6-.6V46.092a.6.6 0 0 1 .6-.6h9.456a.6.6 0 0 1 .6.6v1.92a.6.6 0 0 1-.6.6h-6.144a.6.6 0 0 0-.6.6V51.9a.6.6 0 0 0 .6.6h5.448a.6.6 0 0 1 .6.6v1.752a.6.6 0 0 1-.6.6h-5.448a.6.6 0 0 0-.6.6v2.736a.6.6 0 0 0 .6.6h6.144a.6.6 0 0 1 .6.6v1.92Zm17.922-13.272a.6.6 0 0 0 .6-.6v-1.944a.6.6 0 0 0-.6-.6h-12.888a.6.6 0 0 0-.6.6v1.944a.6.6 0 0 0 .6.6h4.776v13.272a.6.6 0 0 0 .6.6h2.136a.6.6 0 0 0 .6-.6V48.636h4.776Zm15.161 13.477a.6.6 0 0 0 .564.395h2.309a.6.6 0 0 0 .561-.814l-6.023-15.816a.6.6 0 0 0-.561-.386h-3.014a.6.6 0 0 0-.56.385l-6.068 15.816a.6.6 0 0 0 .56.815h2.212a.599.599 0 0 0 .563-.395l1.129-3.098a.6.6 0 0 1 .564-.395h6.072c.252 0 .477.158.563.395l1.129 3.098Zm-5.292-11.408a.6.6 0 0 1 1.127 0l1.494 4.085a.6.6 0 0 1-.564.806h-2.987a.6.6 0 0 1-.564-.806l1.494-4.085Z"></path>
</svg>